<?xml version="1.0" encoding="UTF-8"?>
<svg width="28px" height="28px" viewBox="0 0 28 28" version="1.1" xmlns="http://www.w3.org/2000/svg" xmlns:xlink="http://www.w3.org/1999/xlink">
    <!-- Generator: Sketch 52.2 (67145) - http://www.bohemiancoding.com/sketch -->
    <title>compass-line</title>
    <desc>Created with Sketch.</desc>
    <g id="Page-1" stroke="none" stroke-width="1" fill="none" fill-rule="evenodd">
        <g id="客户体验梳理" transform="translate(-190.000000, -148.000000)">
            <g id="compass-line" transform="translate(188.000000, 146.000000)">
                <polygon id="Path" points="0 0 32 0 32 32 0 32"></polygon>
                <path d="M16,29.3333333 C8.636,29.3333333 2.66666667,23.364 2.66666667,16 C2.66666667,8.636 8.636,2.66666667 16,2.66666667 C23.364,2.66666667 29.3333333,8.636 29.3333333,16 C29.3333333,23.364 23.364,29.3333333 16,29.3333333 Z" id="Shape" fill="#26415E" fill-rule="nonzero"></path>
                <path d="M17.5784429,23.7090755 L23,21.5585169 L23,12.5 C23,12.2238576 22.7761424,12 22.5,12 C22.4258099,12 22.3525495,12.0165101 22.285531,12.048333 L20.8630607,12.723777 L20.8630607,20.2068553 L17.6207939,21.492959 L13.3318021,19.6152816 L10.1369393,20.8564936 L10.1369393,13.4494287 C10.1369393,13.1732863 9.91308169,12.9494287 9.63693931,12.9494287 C9.56274918,12.9494287 9.48948882,12.9659388 9.42247036,12.9977617 L8,13.6732057 L8,22.2923507 C8,22.880775 8.50228867,23.3577872 9.12189314,23.3577872 C9.33970794,23.3443157 9.33970794,23.3443157 9.54667691,23.2784629 L13.2809649,21.8276829 L17.5784429,23.7090755 Z" id="Path-26" fill="#E5B296" fill-rule="nonzero"></path>
                <path d="M18.68225,15.7784387 L15.5,19 L12.31775,15.7784387 C10.5606097,13.9988712 10.5607706,11.1138916 12.3181093,9.33452496 C14.0754481,7.55515835 16.9245519,7.55515835 18.6818907,9.33452496 C20.4392294,11.1138916 20.4393903,13.9988712 18.68225,15.7784387 Z M15.5,15 L16.560469,13.8283112 C16.9895473,13.3545426 17.1179602,12.6419346 16.8858221,12.0228132 C16.6536839,11.4036919 16.1067168,11 15.5,11 C14.8932832,11 14.3463161,11.4036919 14.1141779,12.0228132 C13.8820398,12.6419346 14.0104527,13.3545426 14.439531,13.8283112 L15.5,15 Z" id="Combined-Shape" fill="#E5B296" fill-rule="nonzero"></path>
            </g>
        </g>
    </g>
</svg>