<svg viewBox="0 0 1024 1024" xmlns="http://www.w3.org/2000/svg" width="200" height="200">
  <g fill="currentColor">
    <path
      d="M242.983 121.492C242.983 54.515 188.468 0 121.492 0S0 54.515 0 121.492v781.016h.052L0 903.55A120.589 120.589 0 00120.45 1024H1024V121.492H242.983zm-208.271 0a86.901 86.901 0 0169.77-85.062c.903 8.747 8.037 15.638 17.01 15.638s16.106-6.89 17.008-15.638a86.901 86.901 0 0169.771 85.062v696.06a121.144 121.144 0 00-99.258-35.893c-1.84.191-3.645.556-5.468.833-2.221.33-4.46.59-6.647 1.042-2.395.486-4.703 1.18-7.029 1.805-1.527.416-3.09.729-4.6 1.197a122.012 122.012 0 00-8.521 3.142c-.85.347-1.753.607-2.603.971-3.454 1.458-6.804 3.125-10.102 4.895l-.434.208a122.238 122.238 0 00-28.897 21.8v-696.06zm954.576 867.796H120.45c-47.277 0-85.738-38.46-85.738-86.78 0-47.85 38.93-86.78 86.78-86.78s86.78 38.93 86.78 86.78h34.711V156.203h746.305v833.085z"/>
    <path
      d="M798.668 364.492a17.408 17.408 0 0024.194-4.165 17.39 17.39 0 00-4.165-24.212l-28.36-20.011a17.425 17.425 0 00-24.211 4.165 17.39 17.39 0 004.165 24.212l28.377 20.01zm85.096 60.051a17.321 17.321 0 0024.177-4.182 17.373 17.373 0 00-4.183-24.194l-28.377-20.012a17.373 17.373 0 00-20.011 28.377l28.394 20.011zM642.17 711.593a17.356 17.356 0 0017.356 17.356h34.712a17.356 17.356 0 100-34.712h-34.712a17.356 17.356 0 00-17.356 17.356zm242.984-236.336v34.712a17.356 17.356 0 1034.711 0v-34.712a17.356 17.356 0 10-34.711 0zM713.589 304.44a17.408 17.408 0 0024.194-4.165 17.39 17.39 0 00-4.165-24.212l-28.36-20.01a17.425 17.425 0 00-24.211 4.164 17.39 17.39 0 004.165 24.212l28.377 20.011zm32.716 407.153a17.356 17.356 0 0017.356 17.356h34.712a17.356 17.356 0 100-34.712H763.66a17.356 17.356 0 00-17.356 17.356zm-242.983 0a17.356 17.356 0 00-17.356-17.356h-34.712a17.356 17.356 0 100 34.712h34.712a17.356 17.356 0 0017.356-17.356zm399.186-80.132a17.356 17.356 0 0017.356-17.356v-34.712a17.356 17.356 0 10-34.711 0v34.712a17.356 17.356 0 0017.355 17.356zM628.51 244.389a17.408 17.408 0 0024.195-4.166 17.39 17.39 0 00-4.166-24.211L620.18 196a17.46 17.46 0 00-24.211 4.165 17.39 17.39 0 004.165 24.211l28.377 20.012zm256.643 449.848h-17.356a17.356 17.356 0 100 34.712h52.067v-45.42a17.356 17.356 0 10-34.711 0v10.708zM347.119 728.95h34.712a17.356 17.356 0 100-34.712h-34.712a17.356 17.356 0 100 34.712zm-34.712-242.983a17.356 17.356 0 0017.356-17.356v-34.712a17.356 17.356 0 10-34.712 0v34.712a17.356 17.356 0 0017.356 17.356zm42.557-82.093c3.453 0 6.942-1.042 9.997-3.177l28.36-20.011a17.373 17.373 0 00-20.047-28.377l-28.36 20.011a17.373 17.373 0 0010.05 31.554zm85.078-60.052c3.454 0 6.943-1.041 9.997-3.176l28.36-20.012a17.373 17.373 0 00-20.046-28.376l-28.36 20.01a17.373 17.373 0 0010.05 31.554zm-127.635 246.28a17.356 17.356 0 0017.356-17.355v-34.712a17.356 17.356 0 10-34.712 0v34.712a17.356 17.356 0 0017.356 17.356zM525.12 283.77c3.454 0 6.942-1.04 9.997-3.176l28.36-20.011a17.373 17.373 0 00-20.046-28.377l-28.36 20.011a17.373 17.373 0 0010.05 31.553zm12.913 427.824a17.356 17.356 0 0017.356 17.356h34.712a17.356 17.356 0 100-34.712H555.39a17.356 17.356 0 00-17.356 17.356zm-225.627-17.356a17.356 17.356 0 0017.356-17.356V642.17a17.356 17.356 0 10-34.712 0v34.712a17.356 17.356 0 0017.356 17.356zM711.593 937.22H937.22V798.373H711.593V937.22zm34.712-104.135h156.203v69.423H746.305v-69.423zM381.831 520.678v34.712a17.356 17.356 0 1034.711 0v-34.712a17.356 17.356 0 10-34.711 0zm156.203-52.068a17.356 17.356 0 00-17.356 17.356v34.712a17.356 17.356 0 1034.712 0v-34.712a17.356 17.356 0 00-17.356-17.356zm-104.136 34.712h34.712a17.356 17.356 0 100-34.712h-34.712a17.356 17.356 0 100 34.712zm17.356 121.492a17.356 17.356 0 00-17.356-17.356h-34.712a17.356 17.356 0 100 34.711h34.712a17.356 17.356 0 0017.356-17.355zm52.068 17.355h34.712a17.356 17.356 0 0017.356-17.355v-34.712a17.356 17.356 0 10-34.712 0v17.356h-17.356a17.356 17.356 0 100 34.711zm190.915-156.203a17.356 17.356 0 0017.356 17.356h34.712a17.356 17.356 0 100-34.712h-34.712a17.356 17.356 0 00-17.356 17.356zm104.136 0v34.712a17.356 17.356 0 1034.712 0v-34.712a17.356 17.356 0 10-34.712 0zm17.356 156.203a17.356 17.356 0 0017.356-17.355v-34.712a17.356 17.356 0 10-34.712 0v17.356h-17.356a17.356 17.356 0 100 34.711h34.712zM676.88 572.746a17.356 17.356 0 0017.356-17.356v-34.712a17.356 17.356 0 10-34.712 0v34.712a17.356 17.356 0 0017.356 17.356zm0 69.423h34.712a17.356 17.356 0 100-34.711h-34.712a17.356 17.356 0 100 34.711zm-17.356 156.204h-86.78a17.356 17.356 0 100 34.712h86.78a17.356 17.356 0 100-34.712zm0 52.068H538.034a17.356 17.356 0 100 34.712h121.491a17.356 17.356 0 100-34.712zm0 52.067H485.966a17.356 17.356 0 100 34.712h173.56a17.356 17.356 0 100-34.712zM52.068000000000005 86.78a17.356 17.356 0 1034.712 0 17.356 17.356 0 10-34.712 0zM156.203 86.78a17.356 17.356 0 1034.712 0 17.356 17.356 0 10-34.712 0zM104.136 138.847a17.356 17.356 0 1034.711 0 17.356 17.356 0 10-34.711 0zM52.068000000000005 190.915a17.356 17.356 0 1034.712 0 17.356 17.356 0 10-34.712 0zM156.203 190.915a17.356 17.356 0 1034.712 0 17.356 17.356 0 10-34.712 0zM52.068000000000005 295.05a17.356 17.356 0 1034.712 0 17.356 17.356 0 10-34.712 0zM156.203 295.05a17.356 17.356 0 1034.712 0 17.356 17.356 0 10-34.712 0zM104.136 242.983a17.356 17.356 0 1034.711 0 17.356 17.356 0 10-34.711 0zM104.136 347.119a17.356 17.356 0 1034.711 0 17.356 17.356 0 10-34.711 0zM52.068000000000005 399.186a17.356 17.356 0 1034.712 0 17.356 17.356 0 10-34.712 0zM156.203 399.186a17.356 17.356 0 1034.712 0 17.356 17.356 0 10-34.712 0zM52.068000000000005 503.322a17.356 17.356 0 1034.712 0 17.356 17.356 0 10-34.712 0zM156.203 503.322a17.356 17.356 0 1034.712 0 17.356 17.356 0 10-34.712 0zM104.136 451.254a17.356 17.356 0 1034.711 0 17.356 17.356 0 10-34.711 0zM104.136 555.39a17.356 17.356 0 1034.711 0 17.356 17.356 0 10-34.711 0zM52.068000000000005 607.458a17.356 17.356 0 1034.712 0 17.356 17.356 0 10-34.712 0zM156.203 607.458a17.356 17.356 0 1034.712 0 17.356 17.356 0 10-34.712 0zM52.068000000000005 711.593a17.356 17.356 0 1034.712 0 17.356 17.356 0 10-34.712 0zM156.203 711.593a17.356 17.356 0 1034.712 0 17.356 17.356 0 10-34.712 0zM104.136 659.525a17.356 17.356 0 1034.711 0 17.356 17.356 0 10-34.711 0zM104.136 763.661a17.356 17.356 0 1034.711 0 17.356 17.356 0 10-34.711 0z"/>
  </g>
</svg>
