<svg viewBox="0 0 24 24" height="24" width="24" xmlns="http://www.w3.org/2000/svg">
  <g fill="currentColor">
    <path
      d="M23 16V2c.6 0 1-.4 1-1s-.4-1-1-1H1C.4 0 0 .4 0 1s.4 1 1 1v14c-.6 0-1 .4-1 1s.4 1 1 1h8.1l-2 4.6c-.2.5 0 1.1.5 1.3.5.2 1.1 0 1.3-.5l2.3-5.4h1.5l2.3 5.4c.2.5.8.7 1.3.5.5-.2.7-.8.5-1.3l-2-4.6H23c.6 0 1-.4 1-1s-.4-1-1-1zM3 2h18v11.5l-6-6-5 5-2-2-5 5V2zm1 14l4-4 2 2 5-5 6 6v1H4z"/>
    <path d="M10 8c1.1 0 2-.9 2-2s-.9-2-2-2-2 .9-2 2 .9 2 2 2zm0-3c.6 0 1 .4 1 1s-.4 1-1 1-1-.4-1-1 .4-1 1-1z"/>
  </g>
</svg>
