<svg xmlns="http://www.w3.org/2000/svg" width="28" height="28" viewBox="0 0 28 28">
  <g fill="none" fill-rule="evenodd">
    <path d="M-2-2h32v32H-2z"/>
    <path fill="#26415E" fill-rule="nonzero" d="M14 27.333C6.636 27.333.667 21.364.667 14S6.636.667 14 .667 27.333 6.636 27.333 14 21.364 27.333 14 27.333z"/>
    <path fill="#E5B296" fill-rule="nonzero" d="M15.578 21.71L21 19.558V10.5a.5.5 0 0 0-.714-.452l-1.423.676v7.483l-3.242 1.286-4.29-1.878-3.194 1.241V11.45a.5.5 0 0 0-.715-.451L6 11.673v8.62c0 .588.502 1.065 1.122 1.065.218-.014.218-.014.425-.08l3.734-1.45 4.297 1.881z"/>
    <path fill="#E5B296" fill-rule="nonzero" d="M16.682 7.335a4.597 4.597 0 0 1 0 6.443L13.5 17l-3.182-3.222a4.597 4.597 0 0 1 0-6.443 4.46 4.46 0 0 1 6.364 0zM13.5 9c-.607 0-1.154.404-1.386 1.023-.232.619-.104 1.332.326 1.805L13.5 13l1.06-1.172c.43-.473.558-1.186.326-1.805C14.654 9.403 14.106 9 13.5 9z"/>
  </g>
</svg>
