<svg viewBox="0 0 512 512" height="512" width="512" xmlns="http://www.w3.org/2000/svg">
  <path fill="currentColor"
        d="M288.452 76.389c-4.824-4.823-10.907-8.459-17.693-10.325l-.024-.024H270.663l-.024-.023H270.568l-.025-.025h-.024l-.049-.023h-.022a40.123 40.123 0 00-8.774-1.334l-.097-.023H260.728l-.072-.023h-1.31l-.097.023H258.399l-.097.023h-.339l-.509.025h-.098v.023h-.072l-.412.025h-.096c-9.84.775-18.71 5.089-25.326 11.682-7.271 7.295-11.804 17.377-11.804 28.5 0 11.149 4.533 21.231 11.804 28.502 7.294 7.295 17.377 11.803 28.501 11.803 11.125 0 21.206-4.508 28.502-11.803 7.295-7.271 11.803-17.353 11.803-28.502-.001-11.124-4.509-21.206-11.804-28.501m-16.335 16.358a17.183 17.183 0 00-12.167-5.041 17.12 17.12 0 00-12.142 5.041c-3.102 3.103-5.041 7.392-5.041 12.142 0 4.751 1.939 9.064 5.041 12.167a17.098 17.098 0 0012.142 5.017c4.75 0 9.064-1.914 12.167-5.017a17.169 17.169 0 005.017-12.167c0-4.75-1.916-9.039-5.017-12.142zM259.95 81.744c6.397 0 12.167 2.593 16.359 6.786 4.191 4.192 6.785 9.985 6.785 16.358 0 6.398-2.594 12.167-6.761 16.359-4.217 4.193-9.986 6.787-16.384 6.787a23.066 23.066 0 01-16.335-6.762c-4.217-4.218-6.811-9.986-6.811-16.385a22.985 22.985 0 016.786-16.334c4.195-4.216 9.988-6.809 16.361-6.809zm-8.458-22.346a49.609 49.609 0 015.38-.654l.097-.023h.024l.849-.049h.583l.097-.025H259.495l.071-.023H260.345l.096.023H261.486l.098.025H262.044l.097.023.872.049h.099c1.793.121 3.586.34 5.331.654V34.484c0-2.327-.969-4.46-2.496-5.986a8.488 8.488 0 00-5.986-2.496c-2.303 0-4.435.969-5.961 2.496a8.384 8.384 0 00-2.497 5.986v24.914zM289.3 384.887h-58.675a4.928 4.928 0 00-4.92 4.92v58.676c0 1.356.558 2.568 1.455 3.465.872.897 2.109 1.431 3.465 1.431H289.3a4.852 4.852 0 003.466-1.431 4.852 4.852 0 001.43-3.465v-58.676c0-1.309-.484-2.473-1.309-3.345l-.121-.121c-.898-.898-2.11-1.454-3.466-1.454zm-17.645 22.539a16.5 16.5 0 00-11.705-4.822 16.502 16.502 0 00-16.529 16.528 16.5 16.5 0 004.822 11.706 16.508 16.508 0 0011.706 4.847c4.581 0 8.725-1.842 11.705-4.847 3.006-2.981 4.847-7.126 4.847-11.706.001-4.557-1.84-8.7-4.846-11.706zm82.427-67.666a3.084 3.084 0 01-3.078-3.078 3.083 3.083 0 013.078-3.078h81.724a3.082 3.082 0 013.078 3.078 3.082 3.082 0 01-3.078 3.078h-81.724zm-259.784 0a3.082 3.082 0 01-3.078-3.078 3.082 3.082 0 013.078-3.078h73.895a3.083 3.083 0 013.08 3.078 3.084 3.084 0 01-3.08 3.078H94.298zm177.431-12.192h-18.227V345.793h18.227V327.568zm-66.794 6.036h23.266l-.775-.291a93.592 93.592 0 01-19.583-10.591l-2.908 10.882zm111.581 6.156H277.91v9.112a3.089 3.089 0 01-3.079 3.103h-24.405a3.088 3.088 0 01-3.078-3.103v-9.112h-43.212c-.291 0-.558-.024-.825-.098l-17.183 64.152-.024.049c-.969 3.635-3.369 6.544-6.398 8.313a13.767 13.767 0 01-7.005 1.843l-11.923 43.115c-.413 1.575-2.06 2.521-3.636 2.108-1.574-.412-2.52-2.035-2.108-3.636l11.875-42.921a13.62 13.62 0 01-6.01-5.551l-.072-.121a13.681 13.681 0 01-1.333-10.324l69.072-257.797c6.859 6.325 15.633 10.615 25.351 11.875L209.49 316.59c.365.097.729.242 1.042.484 5.866 4.242 12.289 7.805 19.146 10.494a87.722 87.722 0 0017.668 4.871v-7.948c0-1.697 1.381-3.103 3.078-3.103h24.405c1.697 0 3.079 1.405 3.079 3.103v7.585a85.654 85.654 0 0016.116-4.701 87.455 87.455 0 0016.771-8.943l-44.909-167.64c9.718-1.235 18.491-5.501 25.351-11.803l69.049 257.7c.97 3.611.387 7.296-1.31 10.324l-.071.121a13.831 13.831 0 01-4.969 4.992l10.832 43.479c.412 1.601-.533 3.224-2.107 3.636-1.6.412-3.223-.533-3.635-2.108l-10.738-43.164a13.99 13.99 0 01-8.191-1.794c-3.053-1.769-5.429-4.678-6.422-8.313l-17.159-64.102zm-4.046-15.074a93.17 93.17 0 01-16.165 8.409l-1.284.509h19.848l-2.399-8.918zm43.77-90.11h-8.749v8.773h8.749v-8.773zm-11.851-6.18h14.93a3.094 3.094 0 013.102 3.103v14.929c0 1.696-1.383 3.078-3.102 3.078h-4.412a92.993 92.993 0 01-2.738 19.559c-1.842 7.464-4.63 14.614-8.167 21.255a3.078 3.078 0 01-4.169 1.26 3.057 3.057 0 01-1.261-4.145 87.255 87.255 0 007.636-19.849 88.472 88.472 0 002.52-18.08h-4.338a3.082 3.082 0 01-3.078-3.078v-14.929a3.085 3.085 0 013.077-3.103zm-168.659 6.18h-8.773v8.773h8.773v-8.773zm-11.851-6.18h14.93a3.094 3.094 0 013.103 3.103v14.929a3.088 3.088 0 01-3.103 3.078h-4.315a85.702 85.702 0 002.376 17.45 85.496 85.496 0 007.173 19.315c.775 1.527.195 3.369-1.309 4.145a3.08 3.08 0 01-4.167-1.309c-3.32-6.495-5.938-13.427-7.682-20.698a93.586 93.586 0 01-2.569-18.903h-4.436c-1.697 0-3.102-1.382-3.102-3.078v-14.929a3.106 3.106 0 013.101-3.103zm-20.746 242.746a3.082 3.082 0 01-3.078-3.077 3.082 3.082 0 013.078-3.078H376.5a3.082 3.082 0 013.078 3.078 3.082 3.082 0 01-3.078 3.077H143.133zm292.334-6.156c1.72 0 3.103 1.382 3.103 3.078 0 1.695-1.383 3.077-3.103 3.077h-26.951a3.082 3.082 0 01-3.077-3.077 3.082 3.082 0 013.077-3.078h26.951zm-82.62 14.832c1.696 0 3.077 1.382 3.077 3.078s-1.381 3.103-3.077 3.103H230.674c-1.697 0-3.078-1.406-3.078-3.103s1.381-3.078 3.078-3.078h122.173zm-276.653 6.181c-1.697 0-3.078-1.406-3.078-3.103s1.381-3.078 3.078-3.078h53.923c1.697 0 3.08 1.382 3.08 3.078s-1.383 3.103-3.08 3.103H76.194zm101.451 0c-1.697 0-3.078-1.406-3.078-3.103s1.381-3.078 3.078-3.078h24.6c1.697 0 3.078 1.382 3.078 3.078s-1.381 3.103-3.078 3.103h-24.6zm82.305-89.357c6.204 0 11.826 2.52 15.899 6.592 4.096 4.097 6.615 9.719 6.615 15.898 0 6.205-2.52 11.827-6.593 15.898-4.096 4.097-9.718 6.617-15.922 6.617-6.181 0-11.803-2.521-15.898-6.593-4.073-4.096-6.592-9.718-6.592-15.923 0-6.18 2.52-11.802 6.592-15.898 4.096-4.072 9.719-6.591 15.899-6.591z"
        fill-rule="evenodd" clip-rule="evenodd"/>
</svg>
