<svg viewBox="0 0 297.975 487.587" height="487.587" width="297.975" xmlns="http://www.w3.org/2000/svg">
  <g fill="currentColor">
    <path
      d="M0 448.039V230.038l.046-.008c0-21.742 16.721-39.801 39.721-39.801h218.5c22.25 0 39.7 17.809 39.7 39.809v218.001l.008.055c.042 23.194-17.708 39.489-39.458 39.489H39.767v.004C18.017 487.587 0 470.288 0 448.039z"/>
    <path d="M41.174 231.902h215.619v214.369H41.174V231.902z" fill="#fff"/>
    <path
      d="M202.892 21.506c-.24-28.514 41.01-28.836 41.25 0l-.627 86.527 22.19-27.182c15.312-16.813 42.25 6.625 25.624 25.625l-53.812 64.062c-8.5 8.5-19.55 8.45-28 0l-53.563-64.312c-16.625-19 10.563-42.688 25.625-25.625l21.94 27.432-.627-86.527zM53.142 155.57c-.24 28.515 41.01 28.838 41.25 0l-.627-86.526 22.189 27.182c15.313 16.812 42.25-6.625 25.625-25.625L87.767 6.538c-8.5-8.5-19.55-8.449-28 0L6.205 70.851c-16.626 19 10.562 42.687 25.624 25.625l21.94-27.432-.627 86.526z"/>
    <g>
      <path
        d="M246.572 354.695c0 4.344-3.493 7.365-7.336 7.365h-48.282c-3.791 0-7.345-3.073-7.345-7.365v-52.469c0-6.02 4.825-10.137 10.095-10.137h42.75c5.75 0 10.118 4.575 10.118 10.137v52.469z"/>
      <path
        d="M234.767 360.143h-18.372v70.958c0 12.589 18.372 12.589 18.372 0v-70.958zM213.602 360.143H195.23v70.958c0 12.493 18.372 12.493 18.372 0v-70.958z"/>
      <g>
        <path
          d="M215.267 287.828c7.615 0 13.789-6.174 13.789-13.789 0-7.615-6.174-13.789-13.789-13.789-7.615 0-13.789 6.174-13.789 13.789 0 7.615 6.174 13.789 13.789 13.789z"/>
      </g>
      <g>
        <path
          d="M180.572 354.695c0 4.344-3.493 7.365-7.336 7.365h-48.282c-3.791 0-7.345-3.073-7.345-7.365v-52.469c0-6.02 4.825-10.137 10.095-10.137h42.75c5.75 0 10.118 4.575 10.118 10.137v52.469z"/>
        <path
          d="M168.767 360.143h-18.372v70.958c0 12.589 18.372 12.589 18.372 0v-70.958zM147.602 360.143H129.23v70.958c0 12.493 18.372 12.493 18.372 0v-70.958z"/>
        <g>
          <path
            d="M149.267 287.828c7.615 0 13.789-6.174 13.789-13.789 0-7.615-6.174-13.789-13.789-13.789-7.615 0-13.789 6.174-13.789 13.789 0 7.615 6.174 13.789 13.789 13.789z"/>
        </g>
      </g>
      <g>
        <path
          d="M114.572 354.695c0 4.344-3.493 7.365-7.336 7.365H58.954c-3.791 0-7.345-3.073-7.345-7.365v-52.469c0-6.02 4.825-10.137 10.096-10.137h42.749c5.75 0 10.118 4.575 10.118 10.137v52.469z"/>
        <path
          d="M102.767 360.143H84.394v70.958c0 12.589 18.373 12.589 18.373 0v-70.958zM81.602 360.143H63.23v70.958c0 12.493 18.372 12.493 18.372 0v-70.958z"/>
        <g>
          <path
            d="M83.267 287.828c7.615 0 13.789-6.174 13.789-13.789 0-7.615-6.174-13.789-13.789-13.789-7.615 0-13.789 6.174-13.789 13.789 0 7.615 6.174 13.789 13.789 13.789z"/>
        </g>
      </g>
    </g>
  </g>
</svg>
