<svg viewBox="0 0 64 64" width="64" height="64" xmlns="http://www.w3.org/2000/svg">
  <path fill="currentColor"
        d="M26 49h12v13H26zM32.491 42c11.703 0 20.906-5.204 27.356-15.468a1.002 1.002 0 000-1.064 34.279 34.279 0 00-5.609-6.826l5.668-5.953-1.449-1.378-5.722 6.008a31.23 31.23 0 00-7.72-4.666l2.914-7.281-1.858-.744-2.922 7.304A34.581 34.581 0 0033 10.042V2h-2v8.014a32.834 32.834 0 00-10.396 1.747L17.937 4.65l-1.873.702 2.674 7.13a28.999 28.999 0 00-7.037 4.28l-6.218-5.51-1.326 1.498 6.027 5.34a36.825 36.825 0 00-6.03 7.379 1.002 1.002 0 000 1.064C10.42 36.507 20.483 42 32.49 42zm25.322-15.999c-4.925 7.588-11.265 12.03-19.253 13.473a14.985 14.985 0 00.694-26.6A29.991 29.991 0 0157.813 26zM33 15a10.011 10.011 0 0110 10h-2a8.01 8.01 0 00-8-8zm-7.56-2.474a14.985 14.985 0 00-.694 26.6A29.991 29.991 0 016.188 26c4.924-7.588 11.264-12.03 19.252-13.473zM32.491 43c-1.185 0-2.345-.069-3.491-.175V48h6v-5.09c-.824.054-1.658.09-2.509.09z"/>
</svg>
