<svg width="64" height="64" viewBox="0 0 64 64" xmlns="http://www.w3.org/2000/svg">
  <path fill="currentColor"
        d="M63.5 16c-.3-.2-.7-.3-1-.1l-20.4 7.3L27.8 18c.8-2 1.2-3.8 1.2-5.3 0-2.7-1-5.1-2.9-7-1.9-1.9-4.4-2.9-7-2.9-5.5 0-9.9 4.4-9.9 9.9 0 1.9.7 4.2 1.9 7L.7 23.2c-.4.2-.7.6-.7 1v36c0 .4.2.7.5.9.2.1.4.2.6.2.1 0 .3 0 .4-.1L21.9 54l19.8 7.3c.2.1.5.1.7 0l20.8-7.4c.4-.2.7-.6.7-1v-36c.1-.4-.1-.7-.4-.9zM19.1 4.8c2.1 0 4 .8 5.4 2.3 1.5 1.4 2.3 3.4 2.3 5.4 0 1.4-.5 3.3-1.5 5.5-1.8 4-4.8 8.2-6.2 10.1-.2-.2-.3-.4-.5-.7-1.3-1.8-3.4-4.8-4.9-7.9-1.5-2.9-2.2-5.3-2.2-7.1-.1-4.1 3.4-7.6 7.6-7.6zm42.7 47.3l-19.7 7-19.8-7.3c-.1 0-.3-.1-.4-.1-.1 0-.3 0-.4.1L2.2 58.7V25l10-3.5v.1c.1.1.1.2.2.3l.3.6c.1.1.1.2.2.3l.3.6c.1.1.1.2.2.3.1.2.2.4.3.5.1.1.1.2.2.3.1.2.2.3.3.5.1.1.1.2.2.3.1.2.2.3.3.5.1.1.1.2.2.3.1.2.2.3.3.5.1.1.1.2.2.3.1.2.2.3.3.5.1.1.1.2.2.2.1.2.2.3.3.4 0 .1.1.1.1.2.1.2.2.3.3.4l.1.1c.1.1.2.3.3.4l.1.1c.1.1.2.3.3.4l.3.3c.2.3.4.5.4.6.2.3.5.4.9.4.3 0 .6-.2.9-.4l.3-.3.1-.1.2-.2.1-.1c.1-.1.1-.2.2-.3 0-.1.1-.1.1-.2.1-.1.2-.2.2-.3.1-.1.1-.2.2-.3.1-.1.2-.2.3-.4.1-.1.1-.2.2-.3.1-.1.2-.2.3-.4.1-.1.2-.2.2-.3.1-.1.2-.3.3-.4.1-.1.2-.3.3-.4.1-.1.2-.3.3-.4.1-.1.2-.3.3-.4.1-.2.2-.3.3-.5.1-.1.2-.3.3-.4.1-.2.2-.3.3-.5.1-.2.2-.3.3-.5.1-.2.2-.3.3-.5.1-.2.2-.3.3-.5.1-.2.2-.3.3-.5.1-.2.2-.3.3-.5.1-.2.2-.3.3-.5.1-.2.2-.3.3-.5.1-.2.2-.4.3-.5.1-.2.2-.3.2-.5v-.1l14.8 5.4c.2.1.5.1.7 0l19.3-6.9v33.9z"/>
  <path
    d="M52.5 42.4c.2.1.5.1.7.1.6 0 1.2-.2 1.7-.5.7-.5 1.2-1.2 1.4-2 .2-.8 0-1.7-.4-2.4-.5-.7-1.2-1.2-2-1.4-1.7-.4-3.5.7-3.9 2.4-.2.8 0 1.7.4 2.4.6.7 1.3 1.2 2.1 1.4zm-.3-3.4c.1-.6.7-.9 1.2-.8.3.1.5.2.6.5.1.2.2.5.1.8-.1.3-.2.5-.5.6-.2.1-.5.2-.8.1-.3-.1-.5-.2-.6-.5V39zM11 39.1l-.7.4-.4-.7c-.3-.5-1-.7-1.5-.3-.5.3-.7 1-.3 1.5l.4.7-.7.4c-.5.3-.7 1-.3 1.5.1.4.5.5.8.5.2 0 .4-.1.6-.2l.7-.4.4.7c.2.3.6.5.9.5.2 0 .4-.1.6-.2.5-.3.7-1 .3-1.5l-.4-.7.7-.4c.5-.3.7-1 .3-1.5-.2-.5-.9-.6-1.4-.3zM21.3 42.1c-1.3 0-3-.2-4.1-.5-.6-.1-1.2.3-1.3.9-.1.6.3 1.2.9 1.3 1.1.2 2.9.5 4.5.5.6 0 1.1-.5 1.1-1.1 0-.6-.5-1.1-1.1-1.1zM29.5 38.3c-.7 1-1.5 1.8-2.5 2.4-.3.2-.7.4-1.1.6-.6.2-.8.9-.6 1.5.2.4.6.7 1 .7.1 0 .3 0 .4-.1.5-.2.9-.4 1.3-.7 1.2-.8 2.2-1.7 3.1-2.9.4-.5.3-1.2-.2-1.5-.3-.6-1-.5-1.4 0zM37.5 31.1c-1.1 0-1.7.3-2.3.5-1.4.6-2.6 1.9-2.9 2.3-.4.5-.3 1.2.1 1.6.2.2.5.3.7.3.3 0 .6-.1.8-.4.5-.6 1.3-1.3 2.1-1.7.6-.2.8-.3 1.5-.4.6 0 1.1-.5 1.1-1.1 0-.6-.5-1.1-1.1-1.1zM41.6 32.8c-.2.6 0 1.2.6 1.5 1.1.5 2.7 1.3 3.9 2.2.2.1.4.2.6.2.4 0 .7-.2.9-.5.3-.5.2-1.2-.3-1.5-1.4-.9-3-1.8-4.3-2.3-.5-.4-1.1-.1-1.4.4zM19.1 15.2c1.9 0 3.4-1.5 3.4-3.4S21 8.4 19.1 8.4s-3.4 1.5-3.4 3.4 1.6 3.4 3.4 3.4zm0-4.6c.6 0 1.2.5 1.2 1.2 0 .6-.5 1.2-1.2 1.2-.6 0-1.2-.5-1.2-1.2.1-.6.6-1.2 1.2-1.2z"/>
</svg>
