<?xml version="1.0" encoding="UTF-8"?>
<svg width="30px" height="30px" viewBox="0 0 30 30" version="1.1" xmlns="http://www.w3.org/2000/svg" xmlns:xlink="http://www.w3.org/1999/xlink">
    <!-- Generator: Sketch 52.2 (67145) - http://www.bohemiancoding.com/sketch -->
    <title>icon-insight.component</title>
    <desc>Created with Sketch.</desc>
    <defs>
        <linearGradient x1="21.344%" y1="13.221%" x2="70.567%" y2="80.9%" id="linearGradient-1">
            <stop stop-color="#6871B0" offset="0%"></stop>
            <stop stop-color="#313760" offset="100%"></stop>
        </linearGradient>
    </defs>
    <g id="页面-1" stroke="none" stroke-width="1" fill="none" fill-rule="evenodd">
        <g id="icon-insight.component" transform="translate(-1.000000, -1.000000)">
            <polygon id="路径" points="0 0 32 0 32 32 0 32"></polygon>
            <g id="分组" transform="translate(1.000000, 1.000000)">
                <path d="M15,30 C6.715,30 0,23.285 0,15 C0,6.715 6.715,0 15,0 C23.285,0 30,6.715 30,15 C30,23.285 23.285,30 15,30 Z" id="路径" fill="#000000"></path>
                <path d="M15,30 C6.715,30 0,23.285 0,15 C0,6.715 6.715,0 15,0 C23.285,0 30,6.715 30,15 C30,23.285 23.285,30 15,30 Z" id="路径" fill="url(#linearGradient-1)"></path>
            </g>
            <g id="分组-2" transform="translate(4.000000, 10.000000)">
                <path d="M6,14 C6,14.5525 5.5525,15 5,15 C4.4475,15 4,14.5525 4,14 L4,10 C4,9.4475 4.4475,9 5,9 C5.5525,9 6,9.4475 6,10 L6,14 Z" id="路径" fill="#231F20" opacity="0.2"></path>
                <path d="M20,14 C20,14.5525 19.5525,15 19,15 C18.4475,15 18,14.5525 18,14 L18,10 C18,9.4475 18.4475,9 19,9 C19.5525,9 20,9.4475 20,10 L20,14 Z" id="路径" fill="#231F20" opacity="0.2"></path>
                <path d="M6,13 C6,13.5525 5.5525,14 5,14 C4.4475,14 4,13.5525 4,13 L4,9 C4,8.4475 4.4475,8 5,8 C5.5525,8 6,8.4475 6,9 L6,13 Z" id="路径" fill="#E0995E"></path>
                <path d="M20,13 C20,13.5525 19.5525,14 19,14 C18.4475,14 18,13.5525 18,13 L18,9 C18,8.4475 18.4475,8 19,8 C19.5525,8 20,8.4475 20,9 L20,13 Z" id="路径" fill="#E0995E"></path>
                <path d="M23.5965,1.807 C23.232,1.3195 22.6555,1 22,1 L18,1 L11,1 L5,1 L2,1 C0.8955,1 0,1.8955 0,3 L0,9 C0,9.449 0.1535,9.8595 0.4035,10.193 C0.768,10.6805 1.3445,11 2,11 L6,11 L13,11 L19,11 L22,11 C23.1045,11 24,10.1045 24,9 L24,3 C24,2.551 23.8465,2.1405 23.5965,1.807 Z" id="路径" fill="#231F20" opacity="0.2"></path>
                <path d="M2,-1.77635684e-15 C0.8955,-1.77635684e-15 0,0.8955 0,2 L0,8 C0,8.449 0.1535,8.8595 0.4035,9.193 L5,-1.77635684e-15 L2,-1.77635684e-15 Z" id="路径" fill="#FFFFFF"></path>
                <polygon id="路径" fill="#FFFFFF" points="11 0 6 10 13 10 18 0"></polygon>
                <path d="M5,0 L0.4035,9.193 C0.768,9.6805 1.3445,10 2,10 L6,10 L11,0 L5,0 Z" id="路径" fill="#F5CF87"></path>
                <path d="M19,10 L22,10 C23.1045,10 24,9.1045 24,8 L24,2 C24,1.551 23.8465,1.1405 23.5965,0.807 L19,10 Z" id="路径" fill="#FFFFFF"></path>
                <path d="M22,0 L18,0 L13,10 L19,10 L23.5965,0.807 C23.232,0.3195 22.6555,0 22,0 Z" id="路径" fill="#F5CF87"></path>
            </g>
        </g>
    </g>
</svg>