<svg viewBox="90 50 332 412" height="412" width="332" xmlns="http://www.w3.org/2000/svg">
  <g fill="currentColor">
    <path
      d="M406 49H127a8 8 0 00-8 8v72h-18a8 8 0 000 16h18v64h-18a8 8 0 000 16h18v64h-18a8 8 0 000 16h18v64h-18a8 8 0 000 16h18v70a8 8 0 008 8h279a8 8 0 008-8V57a8 8 0 00-8-8zm-8 398H135v-62h17a8 8 0 000-16h-17v-64h17a8 8 0 000-16h-17v-64h17a8 8 0 000-16h-17v-64h17a8 8 0 000-16h-17V65h263v382z"/>
    <path
      d="M201.15 328.399a8 8 0 0016 0c0-22.664 8.913-42.751 25.22-57.191 8.599 6.052 19.076 9.622 30.38 9.622 11.303 0 21.778-3.569 30.377-9.619 16.31 14.439 25.223 34.526 25.223 57.188a8 8 0 0016 0c0-26.926-10.461-50.874-29.638-68.3 6.792-8.854 10.838-19.905 10.838-31.885 0-29.012-23.686-52.615-52.8-52.615-29.114 0-52.8 23.603-52.8 52.615 0 11.978 4.045 23.027 10.835 31.881-19.175 17.427-29.635 41.378-29.635 68.304zm71.6-136.799c20.291 0 36.8 16.426 36.8 36.615 0 20.19-16.509 36.615-36.8 36.615-20.292 0-36.8-16.425-36.8-36.615s16.508-36.615 36.8-36.615z"/>
  </g>
</svg>
